<svg xmlns="http://www.w3.org/2000/svg" style="isolation:isolate" viewBox="276.948 260.818 1260.227 321.455" width="1680.303" height="428.607"><clipPath id="a"><path fill="#FFF" d="M276.948 260.818h1260.227v321.455H276.948z"/></clipPath><g clip-path="url(#a)" fill="#FFF"><path d="M700.609 381.836q0 11.035-5.371 18.896-5.371 7.862-15.869 11.914-10.498 4.053-25.537 4.053-14.355 0-24.609-4.394-10.254-4.395-15.137-10.987-4.883-6.591-4.883-13.232 0-4.395 3.125-7.52t7.91-3.125q4.2 0 6.446 2.051 2.246 2.051 4.296 5.762 4.102 7.129 9.815 10.644 5.713 3.516 15.576 3.516 8.008 0 13.135-3.564 5.127-3.565 5.127-8.155 0-7.031-5.322-10.254-5.323-3.222-17.53-6.152-13.769-3.418-22.412-7.178-8.642-3.759-13.818-9.912-5.176-6.152-5.176-15.136 0-8.008 4.785-15.137 4.785-7.129 14.111-11.377 9.327-4.248 22.51-4.248 10.352 0 18.604 2.148 8.252 2.149 13.769 5.762 5.518 3.613 8.399 8.008 2.881 4.394 2.881 8.594 0 4.589-3.077 7.519-3.076 2.93-8.74 2.93-4.101 0-6.982-2.344-2.881-2.344-6.592-7.031-3.027-3.907-7.129-6.25-4.101-2.344-11.133-2.344-7.226 0-12.011 3.076-4.786 3.076-4.786 7.666 0 4.199 3.516 6.885 3.516 2.685 9.473 4.443 5.957 1.758 16.406 4.297 12.402 3.028 20.264 7.227 7.861 4.199 11.914 9.912 4.052 5.713 4.052 13.037zm47.168-58.594v3.223q7.52-9.277 15.625-13.623 8.106-4.346 18.36-4.346 12.304 0 22.656 6.348 10.352 6.347 16.357 18.554 6.006 12.207 6.006 28.907 0 12.304-3.467 22.607-3.466 10.303-9.521 17.285-6.055 6.983-14.307 10.742-8.252 3.76-17.724 3.76-11.426 0-19.19-4.59-7.763-4.589-14.795-13.476v40.039q0 17.578-12.793 17.578-7.519 0-9.961-4.541-2.441-4.541-2.441-13.232V323.438q0-7.618 3.32-11.377 3.321-3.76 9.082-3.76 5.664 0 9.229 3.857 3.564 3.858 3.564 11.084zm52.246 38.77q0-10.547-3.222-18.116-3.223-7.568-8.936-11.621-5.713-4.052-12.646-4.052-11.035 0-18.604 8.691-7.568 8.691-7.568 25.586 0 15.918 7.519 24.756 7.52 8.838 18.653 8.838 6.64 0 12.304-3.858 5.665-3.857 9.082-11.572 3.418-7.715 3.418-18.652zm115.528 39.648q-9.668 7.52-18.701 11.279-9.034 3.76-20.264 3.76-10.254 0-18.018-4.053-7.763-4.052-11.963-10.986-4.199-6.933-4.199-15.039 0-10.937 6.934-18.652 6.933-7.715 19.043-10.352 2.539-.586 12.597-2.637 10.059-2.05 17.237-3.759 7.178-1.709 15.576-4.151-.488-10.547-4.248-15.478-3.76-4.932-15.576-4.932-10.156 0-15.283 2.832-5.127 2.832-8.79 8.496-3.662 5.664-5.175 7.471-1.514 1.807-6.494 1.807-4.493 0-7.764-2.881-3.272-2.881-3.272-7.373 0-7.032 4.981-13.672 4.98-6.641 15.527-10.938 10.547-4.297 26.27-4.297 17.578 0 27.636 4.151 10.059 4.15 14.209 13.135 4.151 8.984 4.151 23.828 0 9.375-.049 15.918-.049 6.543-.146 14.551 0 7.519 2.49 15.673 2.49 8.155 2.49 10.498 0 4.102-3.857 7.471-3.858 3.369-8.741 3.369-4.101 0-8.105-3.857-4.004-3.858-8.496-11.182zm-1.758-34.765v-3.809q-5.859 2.148-17.041 4.541-11.182 2.393-15.479 3.516-4.296 1.123-8.203 4.394-3.906 3.272-3.906 9.131 0 6.055 4.59 10.303 4.59 4.248 12.012 4.248 7.91 0 14.599-3.467 6.69-3.467 9.815-8.936 3.613-6.054 3.613-19.921zm148.828 16.796q0 4.981-2.978 10.645-2.979 5.664-9.082 10.791-6.104 5.127-15.381 8.252-9.278 3.125-20.899 3.125-24.707 0-38.574-14.404-13.867-14.405-13.867-38.623 0-16.407 6.348-29.004 6.347-12.598 18.359-19.483t28.711-6.885q10.351 0 18.994 3.028 8.643 3.027 14.648 7.812 6.006 4.785 9.18 10.205 3.174 5.42 3.174 10.108 0 4.785-3.565 8.105-3.564 3.321-8.642 3.321-3.32 0-5.518-1.709-2.197-1.709-4.931-5.518-4.883-7.422-10.205-11.133-5.323-3.711-13.526-3.711-11.816 0-19.043 9.229-7.226 9.228-7.226 25.244 0 7.519 1.855 13.818 1.856 6.299 5.371 10.742 3.516 4.444 8.496 6.739 4.981 2.295 10.938 2.295 8.008 0 13.721-3.711 5.712-3.711 10.107-11.328 2.441-4.493 5.273-7.032 2.832-2.539 6.934-2.539 4.883 0 8.105 3.711 3.223 3.711 3.223 7.91zm97.656-14.648h-52.148q.098 9.082 3.662 16.016 3.564 6.933 9.473 10.449 5.908 3.515 13.037 3.515 4.785 0 8.74-1.123t7.666-3.515q3.711-2.393 6.836-5.127 3.125-2.735 8.105-7.422 2.051-1.758 5.86-1.758 4.101 0 6.64 2.246 2.54 2.246 2.54 6.348 0 3.613-2.833 8.447-2.832 4.834-8.544 9.277-5.713 4.444-14.356 7.374-8.642 2.929-19.873 2.929-25.684 0-39.941-14.648-14.258-14.649-14.258-39.746 0-11.817 3.515-21.924 3.516-10.108 10.254-17.334 6.739-7.227 16.602-11.084 9.863-3.858 21.875-3.858 15.625 0 26.807 6.592 11.181 6.592 16.748 17.041 5.566 10.45 5.566 21.289 0 10.059-5.762 13.037-5.761 2.979-16.211 2.979zm-52.148-15.137h48.34q-.977-13.672-7.373-20.459-6.397-6.787-16.846-6.787-9.961 0-16.357 6.885-6.397 6.885-7.764 20.361zm122.656-69.043v39.551q5.078-5.859 9.912-9.277 4.834-3.418 10.694-5.127 5.859-1.709 12.597-1.709 10.157 0 18.018 4.297 7.861 4.297 12.353 12.5 2.832 4.785 3.809 10.693.977 5.908.977 13.623v51.074q0 8.008-3.663 12.11-3.662 4.101-9.716 4.101-13.184 0-13.184-16.211v-45.019q0-12.793-3.809-19.678-3.808-6.885-14.453-6.885-7.129 0-12.841 4.053-5.713 4.053-8.545 11.084-2.149 5.957-2.149 21.191v35.254q0 7.91-3.564 12.061-3.565 4.15-9.912 4.15-13.184 0-13.184-16.211V284.863q0-8.105 3.467-12.158 3.467-4.053 9.717-4.053 6.347 0 9.912 4.102 3.564 4.101 3.564 12.109zm169.141 84.18h-52.149q.098 9.082 3.662 16.016 3.565 6.933 9.473 10.449 5.908 3.515 13.037 3.515 4.785 0 8.74-1.123 3.956-1.123 7.666-3.515 3.711-2.393 6.836-5.127 3.125-2.735 8.106-7.422 2.051-1.758 5.859-1.758 4.102 0 6.641 2.246 2.539 2.246 2.539 6.348 0 3.613-2.832 8.447t-8.545 9.277q-5.713 4.444-14.355 7.374-8.643 2.929-19.874 2.929-25.683 0-39.941-14.648-14.258-14.649-14.258-39.746 0-11.817 3.516-21.924 3.516-10.108 10.254-17.334 6.738-7.227 16.601-11.084 9.864-3.858 21.875-3.858 15.625 0 26.807 6.592 11.182 6.592 16.748 17.041 5.566 10.45 5.566 21.289 0 10.059-5.761 13.037-5.762 2.979-16.211 2.979zm-52.149-15.137h48.34q-.976-13.672-7.373-20.459-6.396-6.787-16.846-6.787-9.96 0-16.357 6.885-6.396 6.885-7.764 20.361zm116.016 66.114l2.441-5.957-32.812-82.618q-3.027-7.129-3.027-10.351 0-3.418 1.757-6.348 1.758-2.93 4.834-4.687 3.077-1.758 6.397-1.758 5.762 0 8.691 3.662 2.93 3.662 5.176 10.498l22.559 65.625 21.386-61.035q2.539-7.422 4.59-11.621 2.051-4.2 4.346-5.664 2.295-1.465 6.494-1.465 3.027 0 5.811 1.611 2.783 1.611 4.296 4.346 1.514 2.734 1.514 5.762-.391 1.855-1.269 5.273-.879 3.418-2.149 6.934l-34.765 91.015q-4.493 12.012-8.79 18.848-4.296 6.836-11.377 10.498-7.08 3.662-19.091 3.662-11.719 0-17.578-2.539-5.86-2.539-5.86-9.277 0-4.59 2.783-7.08 2.784-2.491 8.252-2.491 2.149 0 4.2.586 2.539.586 4.394.586 4.59 0 7.227-1.367 2.636-1.367 4.736-4.736 2.1-3.369 4.834-9.912zM1188.53 504.093h3.173v-4.004q0-6.25 1.587-9.936 1.587-3.687 5.371-5.371 3.785-1.685 10.376-1.685 11.67 0 11.67 5.713 0 1.855-1.22 3.174-1.221 1.318-2.881 1.318-.782 0-2.686-.293t-3.222-.293q-3.614 0-4.639 2.124-1.026 2.124-1.026 6.079v3.174h3.272q7.617 0 7.617 4.59 0 3.271-2.026 4.15-2.027.879-5.591.879h-3.272v35.303q0 3.955-1.879 6.03-1.88 2.075-4.859 2.075-2.832 0-4.712-2.075t-1.88-6.03v-35.303h-3.662q-2.978 0-4.59-1.343-1.611-1.342-1.611-3.491 0-4.785 6.69-4.785zm47.607 33.789v11.133q0 4.053-1.904 6.079-1.905 2.026-4.834 2.026-2.881 0-4.737-2.05-1.855-2.051-1.855-6.055v-37.109q0-8.985 6.494-8.985 3.32 0 4.785 2.1 1.465 2.099 1.612 6.201 2.392-4.102 4.907-6.201 2.514-2.1 6.714-2.1 4.199 0 8.154 2.1 3.955 2.099 3.955 5.566 0 2.442-1.685 4.029-1.684 1.586-3.637 1.586-.733 0-3.54-.903-2.808-.903-4.956-.903-2.93 0-4.786 1.538-1.855 1.538-2.88 4.565-1.026 3.028-1.416 7.203-.391 4.174-.391 10.18zm43.896-27.392v38.525q0 4.004-1.904 6.055-1.904 2.05-4.834 2.05-2.929 0-4.761-2.099-1.831-2.1-1.831-6.006V510.88q0-3.955 1.831-5.957 1.832-2.002 4.761-2.002 2.93 0 4.834 2.002 1.904 2.002 1.904 5.567zm-6.591-13.77q-2.784 0-4.761-1.709-1.978-1.709-1.978-4.834 0-2.832 2.027-4.663 2.026-1.831 4.712-1.831 2.588 0 4.59 1.66 2.001 1.66 2.001 4.834 0 3.076-1.953 4.81-1.953 1.733-4.638 1.733zm57.568 36.572h-26.074q.049 4.541 1.831 8.008 1.782 3.467 4.736 5.225 2.954 1.758 6.519 1.758 2.392 0 4.37-.562 1.977-.561 3.833-1.758 1.855-1.196 3.418-2.563 1.562-1.367 4.053-3.711 1.025-.879 2.929-.879 2.051 0 3.321 1.123 1.269 1.123 1.269 3.174 0 1.806-1.416 4.223t-4.272 4.639q-2.857 2.222-7.178 3.687-4.321 1.464-9.937 1.464-12.841 0-19.97-7.324t-7.129-19.873q0-5.908 1.758-10.962 1.757-5.053 5.127-8.667 3.369-3.613 8.3-5.542 4.932-1.928 10.938-1.928 7.812 0 13.403 3.295 5.591 3.296 8.374 8.521 2.783 5.225 2.783 10.645 0 5.029-2.88 6.518-2.881 1.489-8.106 1.489zm-26.074-7.568h24.17q-.489-6.836-3.687-10.23-3.198-3.393-8.423-3.393-4.98 0-8.178 3.442-3.199 3.443-3.882 10.181zm60.4-15.43v1.612q3.516-4.639 7.691-6.812 4.174-2.173 9.594-2.173 5.274 0 9.424 2.295 4.151 2.295 6.201 6.494 1.319 2.442 1.709 5.274.391 2.832.391 7.226v24.805q0 4.004-1.831 6.055-1.831 2.05-4.761 2.05-2.978 0-4.834-2.099-1.855-2.1-1.855-6.006v-22.217q0-6.592-1.831-10.083-1.831-3.491-7.3-3.491-3.565 0-6.494 2.124-2.93 2.124-4.297 5.835-.977 2.978-.977 11.133v16.699q0 4.053-1.88 6.079-1.879 2.026-4.858 2.026-2.881 0-4.736-2.099-1.856-2.1-1.856-6.006V510.49q0-3.809 1.66-5.689 1.661-1.88 4.541-1.88 1.758 0 3.174.83t2.271 2.491q.854 1.66.854 4.052zm84.815 39.209v-1.318q-2.686 3.076-5.298 5.005-2.612 1.929-5.664 2.929-3.052 1.001-6.665 1.001-4.785 0-8.863-2.026-4.077-2.026-7.055-5.786-2.979-3.76-4.517-8.838-1.538-5.078-1.538-10.986 0-12.5 6.104-19.483 6.103-6.982 16.064-6.982 5.762 0 9.717 1.977 3.955 1.978 7.715 6.08v-19.678q0-4.102 1.635-6.201 1.636-2.1 4.663-2.1 3.028 0 4.664 1.929 1.635 1.928 1.635 5.688v58.789q0 3.809-1.757 5.713-1.758 1.904-4.542 1.904-2.734 0-4.516-1.977-1.782-1.978-1.782-5.64zm-26.221-19.58q0 5.42 1.685 9.229 1.684 3.808 4.614 5.737 2.929 1.929 6.396 1.929 3.516 0 6.421-1.831 2.905-1.831 4.639-5.616 1.733-3.784 1.733-9.448 0-5.322-1.733-9.155-1.734-3.833-4.688-5.859-2.954-2.027-6.469-2.027-3.662 0-6.543 2.075-2.881 2.076-4.468 5.957-1.587 3.882-1.587 9.009zm95.117 9.766q0 5.517-2.685 9.448-2.686 3.931-7.935 5.957t-12.769 2.026q-7.177 0-12.304-2.197-5.127-2.197-7.569-5.493-2.441-3.296-2.441-6.616 0-2.197 1.563-3.76 1.562-1.562 3.955-1.562 2.099 0 3.222 1.025 1.123 1.025 2.149 2.881 2.05 3.564 4.907 5.322 2.856 1.758 7.788 1.758 4.004 0 6.567-1.782 2.564-1.783 2.564-4.077 0-3.516-2.661-5.127-2.661-1.612-8.765-3.077-6.885-1.709-11.206-3.588-4.321-1.88-6.909-4.957-2.588-3.076-2.588-7.568 0-4.004 2.393-7.568 2.392-3.565 7.055-5.689t11.255-2.124q5.176 0 9.302 1.074 4.126 1.075 6.885 2.881 2.758 1.807 4.199 4.004 1.44 2.197 1.44 4.297 0 2.295-1.538 3.76-1.538 1.465-4.37 1.465-2.051 0-3.491-1.172-1.441-1.172-3.296-3.516-1.514-1.953-3.565-3.125-2.05-1.172-5.566-1.172-3.613 0-6.006 1.538-2.392 1.539-2.392 3.833 0 2.1 1.757 3.443 1.758 1.343 4.737 2.221 2.978.879 8.203 2.149 6.201 1.514 10.132 3.613 3.93 2.1 5.957 4.956 2.026 2.857 2.026 6.519zm-491.699-35.596h3.174v-4.004q0-6.25 1.587-9.936 1.587-3.687 5.371-5.371 3.784-1.685 10.376-1.685 11.67 0 11.67 5.713 0 1.855-1.221 3.174-1.221 1.318-2.881 1.318-.781 0-2.685-.293-1.905-.293-3.223-.293-3.613 0-4.639 2.124-1.025 2.124-1.025 6.079v3.174h3.271q7.618 0 7.618 4.59 0 3.271-2.027 4.15-2.026.879-5.591.879h-3.271v35.303q0 3.955-1.88 6.03t-4.858 2.075q-2.832 0-4.712-2.075t-1.88-6.03v-35.303h-3.662q-2.979 0-4.59-1.343-1.612-1.342-1.612-3.491 0-4.785 6.69-4.785zm82.959 25.928q0 5.957-1.856 10.986-1.855 5.029-5.371 8.643-3.515 3.613-8.398 5.542-4.883 1.928-10.986 1.928-6.055 0-10.889-1.953t-8.374-5.59q-3.54-3.638-5.371-8.594-1.831-4.956-1.831-10.962 0-6.055 1.855-11.084 1.856-5.029 5.322-8.594 3.467-3.564 8.399-5.493 4.932-1.929 10.889-1.929 6.054 0 10.986 1.953t8.447 5.567q3.516 3.613 5.347 8.594 1.831 4.98 1.831 10.986zm-13.379 0q0-8.154-3.589-12.695t-9.643-4.541q-3.907 0-6.885 2.026-2.979 2.026-4.59 5.981-1.611 3.955-1.611 9.229 0 5.224 1.587 9.131 1.586 3.906 4.541 5.981 2.954 2.075 6.958 2.075 6.054 0 9.643-4.565 3.589-4.566 3.589-12.622zm37.109 7.861v11.133q0 4.053-1.904 6.079t-4.834 2.026q-2.881 0-4.736-2.05-1.856-2.051-1.856-6.055v-37.109q0-8.985 6.494-8.985 3.321 0 4.786 2.1 1.464 2.099 1.611 6.201 2.393-4.102 4.907-6.201 2.515-2.1 6.714-2.1t8.154 2.1q3.955 2.099 3.955 5.566 0 2.442-1.684 4.029-1.685 1.586-3.638 1.586-.732 0-3.54-.903t-4.956-.903q-2.93 0-4.785 1.538-1.856 1.538-2.881 4.565-1.025 3.028-1.416 7.203-.391 4.174-.391 10.18zm-382.666 1.807q0 5.517-2.685 9.448-2.686 3.931-7.935 5.957t-12.768 2.026q-7.178 0-12.305-2.197t-7.568-5.493q-2.442-3.296-2.442-6.616 0-2.197 1.563-3.76 1.562-1.562 3.955-1.562 2.099 0 3.222 1.025 1.124 1.025 2.149 2.881 2.051 3.564 4.907 5.322 2.857 1.758 7.788 1.758 4.004 0 6.568-1.782 2.563-1.783 2.563-4.077 0-3.516-2.661-5.127-2.661-1.612-8.765-3.077-6.884-1.709-11.206-3.588-4.321-1.88-6.909-4.957-2.588-3.076-2.588-7.568 0-4.004 2.393-7.568 2.392-3.565 7.055-5.689 4.664-2.124 11.255-2.124 5.176 0 9.302 1.074 4.126 1.075 6.885 2.881 2.759 1.807 4.199 4.004 1.44 2.197 1.44 4.297 0 2.295-1.538 3.76-1.538 1.465-4.37 1.465-2.051 0-3.491-1.172t-3.296-3.516q-1.514-1.953-3.564-3.125-2.051-1.172-5.567-1.172-3.613 0-6.006 1.538-2.392 1.539-2.392 3.833 0 2.1 1.758 3.443 1.757 1.343 4.736 2.221 2.979.879 8.203 2.149 6.201 1.514 10.132 3.613 3.931 2.1 5.957 4.956 2.026 2.857 2.026 6.519zm23.584-29.297v1.611q3.76-4.638 7.813-6.811t9.18-2.173q6.152 0 11.328 3.174 5.175 3.174 8.178 9.277 3.003 6.104 3.003 14.453 0 6.153-1.733 11.304-1.733 5.151-4.761 8.642-3.027 3.492-7.153 5.372-4.126 1.879-8.862 1.879-5.713 0-9.595-2.294-3.882-2.295-7.398-6.739v20.02q0 8.789-6.396 8.789-3.76 0-4.981-2.271-1.22-2.27-1.22-6.616V510.49q0-3.809 1.66-5.689t4.541-1.88q2.832 0 4.614 1.929t1.782 5.542zm26.123 19.385q0-5.274-1.611-9.058t-4.468-5.81q-2.856-2.027-6.323-2.027-5.518 0-9.302 4.346t-3.784 12.793q0 7.959 3.76 12.378 3.76 4.419 9.326 4.419 3.32 0 6.152-1.929 2.832-1.929 4.541-5.786 1.709-3.858 1.709-9.326zm57.764 19.824q-4.834 3.76-9.351 5.64-4.516 1.879-10.131 1.879-5.127 0-9.009-2.026-3.882-2.026-5.982-5.493-2.099-3.467-2.099-7.52 0-5.468 3.467-9.326 3.466-3.857 9.521-5.176 1.27-.293 6.299-1.318 5.029-1.025 8.618-1.88 3.589-.854 7.788-2.075-.244-5.273-2.124-7.739-1.88-2.466-7.788-2.466-5.078 0-7.642 1.416-2.563 1.416-4.394 4.248-1.831 2.832-2.588 3.735-.757.904-3.247.904-2.246 0-3.882-1.441-1.636-1.44-1.636-3.686 0-3.516 2.491-6.836 2.49-3.321 7.763-5.469 5.274-2.148 13.135-2.148 8.789 0 13.818 2.075 5.03 2.075 7.105 6.567t2.075 11.914q0 4.688-.024 7.959-.025 3.272-.074 7.276 0 3.759 1.246 7.837 1.245 4.077 1.245 5.249 0 2.05-1.929 3.735-1.929 1.684-4.37 1.684-2.051 0-4.053-1.928-2.002-1.929-4.248-5.591zm-.879-17.383v-1.904q-2.93 1.074-8.52 2.27-5.591 1.197-7.74 1.758-2.148.562-4.101 2.197-1.953 1.636-1.953 4.566 0 3.027 2.295 5.151 2.295 2.124 6.005 2.124 3.956 0 7.3-1.733 3.345-1.734 4.908-4.468 1.806-3.027 1.806-9.961zm74.414 8.399q0 2.49-1.489 5.322t-4.541 5.395q-3.052 2.564-7.69 4.126-4.639 1.563-10.45 1.563-12.353 0-19.287-7.202-6.933-7.202-6.933-19.312 0-8.203 3.173-14.502 3.174-6.299 9.18-9.741 6.006-3.442 14.356-3.442 5.175 0 9.497 1.513 4.321 1.514 7.324 3.907 3.003 2.392 4.59 5.102 1.587 2.71 1.587 5.054 0 2.392-1.783 4.052-1.782 1.661-4.321 1.661-1.66 0-2.759-.855-1.098-.854-2.465-2.759-2.442-3.711-5.103-5.566-2.661-1.856-6.763-1.856-5.908 0-9.521 4.615-3.613 4.614-3.613 12.622 0 3.76.927 6.909.928 3.149 2.686 5.371 1.758 2.222 4.248 3.369 2.49 1.148 5.469 1.148 4.003 0 6.86-1.856 2.856-1.855 5.054-5.664 1.22-2.246 2.636-3.515 1.416-1.27 3.467-1.27 2.442 0 4.053 1.855 1.611 1.856 1.611 3.956zm48.828-7.325h-26.074q.049 4.541 1.831 8.008 1.782 3.467 4.737 5.225 2.954 1.758 6.518 1.758 2.393 0 4.37-.562 1.978-.561 3.833-1.758 1.856-1.196 3.418-2.563 1.563-1.367 4.053-3.711 1.025-.879 2.93-.879 2.05 0 3.32 1.123 1.269 1.123 1.269 3.174 0 1.806-1.416 4.223t-4.272 4.639q-2.856 2.222-7.178 3.687-4.321 1.464-9.936 1.464-12.842 0-19.971-7.324t-7.129-19.873q0-5.908 1.758-10.962 1.758-5.053 5.127-8.667 3.369-3.613 8.301-5.542 4.931-1.928 10.937-1.928 7.813 0 13.403 3.295 5.591 3.296 8.374 8.521 2.784 5.225 2.784 10.645 0 5.029-2.881 6.518-2.881 1.489-8.106 1.489zm-26.074-7.568h24.17q-.488-6.836-3.686-10.23-3.199-3.393-8.423-3.393-4.981 0-8.179 3.442-3.198 3.443-3.882 10.181zm-297.412 23.877q-4.834 3.76-9.351 5.64-4.516 1.879-10.131 1.879-5.127 0-9.009-2.026-3.882-2.026-5.982-5.493-2.099-3.467-2.099-7.52 0-5.468 3.467-9.326 3.466-3.857 9.521-5.176 1.27-.293 6.299-1.318 5.029-1.025 8.618-1.88 3.589-.854 7.788-2.075-.244-5.273-2.124-7.739-1.88-2.466-7.788-2.466-5.078 0-7.642 1.416-2.563 1.416-4.394 4.248-1.831 2.832-2.588 3.735-.757.904-3.247.904-2.246 0-3.882-1.441-1.636-1.44-1.636-3.686 0-3.516 2.491-6.836 2.49-3.321 7.763-5.469 5.274-2.148 13.135-2.148 8.789 0 13.818 2.075 5.03 2.075 7.105 6.567t2.075 11.914q0 4.688-.024 7.959-.025 3.272-.074 7.276 0 3.759 1.246 7.837 1.245 4.077 1.245 5.249 0 2.05-1.929 3.735-1.929 1.684-4.37 1.684-2.051 0-4.053-1.928-2.002-1.929-4.248-5.591zm-.879-17.383v-1.904q-2.93 1.074-8.52 2.27-5.591 1.197-7.74 1.758-2.148.562-4.101 2.197-1.953 1.636-1.953 4.566 0 3.027 2.295 5.151 2.295 2.124 6.005 2.124 3.956 0 7.3-1.733 3.345-1.734 4.907-4.468 1.807-3.027 1.807-9.961zM446 457h124v106.636H446z"/><circle vector-effect="non-scaling-stroke" cx="508" cy="459" r="62"/><circle vector-effect="non-scaling-stroke" cx="508" cy="342" r="45"/><path d="M352.17 356.571h85.687v57.688c0 36.047-29.266 65.312-65.313 65.312H352.17c-36.047 0-65.313-27.557-65.313-61.5 0-33.942 29.266-61.5 65.313-61.5zm-27.36 37.743v11.865q1.524-1.758 2.974-2.783 1.45-1.026 3.208-1.538 1.758-.513 3.779-.513 3.047 0 5.405 1.289 2.359 1.289 3.707 3.75.849 1.435 1.142 3.208.293 1.772.293 4.087v15.322q0 2.402-1.099 3.633-1.098 1.23-2.915 1.23-3.955 0-3.955-4.863v-13.506q0-3.838-1.142-5.903-1.143-2.065-4.336-2.065-2.139 0-3.853 1.215-1.714 1.216-2.563 3.326-.645 1.787-.645 6.357v10.576q0 2.373-1.069 3.618-1.069 1.245-2.974 1.245-3.955 0-3.955-4.863v-34.687q0-2.432 1.04-3.648 1.04-1.216 2.915-1.216 1.905 0 2.974 1.231 1.069 1.23 1.069 3.633zm35.098 20.713h14.502q-.293-4.102-2.212-6.138-1.919-2.036-5.054-2.036-2.988 0-4.907 2.065-1.919 2.066-2.329 6.109zm34.805 19.833l.732-1.787-9.844-24.785q-.908-2.138-.908-3.105 0-1.026.527-1.905.528-.878 1.451-1.406.922-.527 1.919-.527 1.728 0 2.607 1.098.879 1.099 1.553 3.15l6.767 19.687 6.416-18.31q.762-2.227 1.377-3.486.616-1.26 1.304-1.7.688-.439 1.948-.439.908 0 1.743.483.835.484 1.289 1.304.455.82.455 1.728-.118.557-.381 1.583-.264 1.025-.645 2.08l-10.43 27.304q-1.347 3.604-2.636 5.655-1.289 2.05-3.413 3.149-2.124 1.099-5.728 1.099-3.515 0-5.273-.762-1.758-.762-1.758-2.783 0-1.377.835-2.124.835-.747 2.475-.747.645 0 1.26.175.762.176 1.319.176 1.377 0 2.168-.41.791-.41 1.42-1.421.63-1.011 1.451-2.974zm-19.161-15.292h-15.644q.029 2.724 1.099 4.804 1.069 2.08 2.841 3.135 1.773 1.055 3.911 1.055 1.436 0 2.623-.337 1.186-.337 2.299-1.055 1.114-.718 2.051-1.538.938-.82 2.432-2.227.615-.527 1.758-.527 1.23 0 1.992.674t.762 1.904q0 1.084-.85 2.534-.85 1.451-2.564 2.784-1.713 1.333-4.306 2.211-2.593.879-5.962.879-7.705 0-11.983-4.394-4.277-4.395-4.277-11.924 0-3.545 1.055-6.577 1.054-3.032 3.076-5.2 2.021-2.168 4.98-3.326 2.959-1.157 6.563-1.157 4.687 0 8.042 1.978 3.354 1.977 5.024 5.112t1.67 6.387q0 3.017-1.728 3.911-1.729.894-4.864.894z" fill-rule="evenodd"/></g></svg>